<svg height="512" viewBox="0 0 64 64" width="512" xmlns="http://www.w3.org/2000/svg"><g id="Cashier-Clerk-Avatar-Woman-Occupation"><path d="m35 22a3 3 0 0 1 1.04 5.81 2.958 2.958 0 0 1 .96 2.19 3 3 0 0 1 -3 3 2.93 2.93 0 0 1 -1.11-.22 2.993 2.993 0 0 1 -5.84-.26h-8.1a2.993 2.993 0 0 1 -5.84.26 2.93 2.93 0 0 1 -1.11.22 3 3 0 0 1 -3-3 2.958 2.958 0 0 1 .96-2.19 3 3 0 0 1 1.04-5.81 2.772 2.772 0 0 1 1 .18h22a2.772 2.772 0 0 1 1-.18z" fill="#57565c"/><path d="m27 32.16v6.84a4 4 0 0 1 -8 0v-6.84z" fill="#ffc477"/><g fill="#ffb655"><path d="m34 19a3 3 0 0 1 0 6h-2v-6z"/><path d="m14 19v6h-2a3 3 0 0 1 0-6z"/><path d="m27 32.16v3a9.944 9.944 0 0 1 -8 0v-3z"/></g><path d="m33 16v8a10 10 0 0 1 -20 0v-8a2.006 2.006 0 0 1 2-2h16a2.006 2.006 0 0 1 2 2z" fill="#ffc477"/><path d="m33.29 13.58a2 2 0 0 1 1.48 2.87l-.1.21a2.006 2.006 0 0 1 -2.15 1.07l-7.37-1.34a11.95 11.95 0 0 0 -4.3 0l-7.37 1.34a2.006 2.006 0 0 1 -2.15-1.07l-.1-.21a2 2 0 0 1 1.48-2.87l.29-.04 7.57-1.17a16.493 16.493 0 0 1 4.86 0l7.57 1.17z" fill="#ed539d"/><path d="m33 13v.54l-7.57-1.17a16.493 16.493 0 0 0 -4.86 0l-7.57 1.17v-5.26a4 4 0 0 1 3.22-3.92l.05-.01 5.16-1.04a8.291 8.291 0 0 1 3.14 0l5.16 1.04.05.01a4 4 0 0 1 3.22 3.92z" fill="#ea348b"/><path d="m10.35 58.2a3.846 3.846 0 0 1 .65 2.18v.62h-8v-6h6.09a7.9 7.9 0 0 0 1.26 3.2z" fill="#ffc477"/><path d="m35.65 58.2a7.9 7.9 0 0 0 1.26-3.2h6.09v6h-8v-.62a3.846 3.846 0 0 1 .65-2.18z" fill="#ffc477"/><path d="m36.91 55a7.9 7.9 0 0 1 -1.26 3.2 3.846 3.846 0 0 0 -.65 2.18v.62h-24v-.62a3.846 3.846 0 0 0 -.65-2.18 7.9 7.9 0 0 1 -1.26-3.2h-6.09v-7.12a7.985 7.985 0 0 1 5.61-7.63l6.87-2.15 3.52-.1 4 4 4-4 3.52.1 6.87 2.15a7.985 7.985 0 0 1 5.61 7.63v7.12z" fill="#ea348b"/><path d="m19 38v6a2 2 0 0 0 -4 0v-4a4 4 0 0 1 4-4z" fill="#c61469"/><path d="m29 42a2.006 2.006 0 0 0 -2 2v-8a4 4 0 0 1 4 4v4a2.006 2.006 0 0 0 -2-2z" fill="#c61469"/><path d="m35 57h26v4h-26z" fill="#ee8700"/><path d="m46 41h4v4h-4z" fill="#ee8700"/><path d="m54 35v6h-4-4-4v-6z" fill="#ee8700"/><path d="m61 57h-26l3-12h20z" fill="#ff9811"/><path d="m49 49h6v4h-6z" fill="#ee8700"/><path d="m46 41h4v2h-4z" fill="#cc7400"/><path d="m30 25v6.14a10 10 0 0 1 -14 0v-6.14z" fill="#44ffe8"/><path d="m61.97 56.76-3-12a1 1 0 0 0 -.97-.76h-7v-2h3a1 1 0 0 0 1-1v-6a1 1 0 0 0 -1-1h-12a1 1 0 0 0 -1 1v6a1.552 1.552 0 0 0 .04.21 8.851 8.851 0 0 0 -3.35-1.91l-6.52-2.04a4.957 4.957 0 0 0 -1.2-1.26h.03a3.979 3.979 0 0 0 3.48-2.04 3.037 3.037 0 0 0 .52.04 4 4 0 0 0 3.52-5.9 3.987 3.987 0 0 0 1.48-3.1 3.942 3.942 0 0 0 -1.03-2.65c.01-.12.03-.23.03-.35a4 4 0 0 0 -3.23-3.92 2.987 2.987 0 0 0 .79-.97l.11-.21a2.979 2.979 0 0 0 -1.67-4.15v-4.47a5.023 5.023 0 0 0 -4.07-4.91l-5.17-1.04a9.116 9.116 0 0 0 -3.53 0l-5.21 1.05a5.009 5.009 0 0 0 -4.02 4.9v4.47a2.979 2.979 0 0 0 -1.67 4.15l.1.21a3.239 3.239 0 0 0 .78.97 4 4 0 0 0 -3.21 3.92c0 .12.02.23.03.35a3.942 3.942 0 0 0 -1.03 2.65 3.987 3.987 0 0 0 1.48 3.1 4 4 0 0 0 4.04 5.86 3.979 3.979 0 0 0 3.48 2.04h.03a4.957 4.957 0 0 0 -1.2 1.26l-6.52 2.03a8.963 8.963 0 0 0 -6.31 8.59v13.12a1 1 0 0 0 1 1h58a1 1 0 0 0 1-1v-4a.986.986 0 0 0 -.03-.24zm-18.97-20.76h10v4h-10zm6 6v2h-2v-2zm-7 0h3v2h-1.89a9.073 9.073 0 0 0 -1.33-2.04 1.435 1.435 0 0 0 .22.04zm15.22 4 2.5 10h-23.44l2.5-10zm-27.22-6v1.17a3.026 3.026 0 0 0 -2 0v-4a3.014 3.014 0 0 1 2 2.83zm-10.79-7.84a9.116 9.116 0 0 1 -2.21-1.46v-.7h4v-2h-4v-2h12v2h-4v2h4v.69a8.878 8.878 0 0 1 -9.79 1.47zm6.79 2.41v3.02l-3 3-3-3v-3.02a10.68 10.68 0 0 0 6 0zm-11.66-15.98 6.69-1.22a11.1 11.1 0 0 1 3.94.01l6.69 1.21-2.32 5.41h-12.68zm.66 6.62v2.91a8.953 8.953 0 0 1 -1-4.12v-1.13zm17-2.34v1.13a9 9 0 0 1 -1 4.07v-2.86zm2-2.87a2.006 2.006 0 0 1 2 2 2.015 2.015 0 0 1 -2 2zm2.83 4.83a1.092 1.092 0 0 0 .13-.17 1.861 1.861 0 0 1 .04.34 1.991 1.991 0 0 1 -1.3 1.87 1 1 0 0 0 -.33 1.68 1.965 1.965 0 0 1 .63 1.45 2.006 2.006 0 0 1 -2 2 1.835 1.835 0 0 1 -.73-.15 1.085 1.085 0 0 0 -.83.03 1.071 1.071 0 0 0 -.52.64 1.99 1.99 0 0 1 -1.92 1.48 1.956 1.956 0 0 1 -1.36-.57 11.061 11.061 0 0 0 5.17-7.43h.19a4 4 0 0 0 2.83-1.17zm-22.83-16.55a3.03 3.03 0 0 1 2.47-2.95l5.15-1.04a7.478 7.478 0 0 1 2.75 0l5.21 1.05a3.016 3.016 0 0 1 2.42 2.94v4.09l-6.42-.98a16.537 16.537 0 0 0 -5.16 0l-6.42.98zm-1.87 6.82a.978.978 0 0 1 .73-.53l7.86-1.21a15.374 15.374 0 0 1 4.56 0l7.86 1.21a1 1 0 0 1 .74 1.43l-.1.21a1.02 1.02 0 0 1 -1.08.54l-7.37-1.34a12.589 12.589 0 0 0 -4.66 0l-7.37 1.34a1.006 1.006 0 0 1 -1.08-.54l-.1-.2a1.006 1.006 0 0 1 .01-.91zm-.13 4.9v4a2.015 2.015 0 0 1 -2-2 2.006 2.006 0 0 1 2-2zm4 14a1.99 1.99 0 0 1 -1.92-1.48 1.071 1.071 0 0 0 -.52-.64 1.085 1.085 0 0 0 -.83-.03 1.835 1.835 0 0 1 -.73.15 2.006 2.006 0 0 1 -2-2 1.965 1.965 0 0 1 .63-1.45 1 1 0 0 0 -.33-1.68 1.991 1.991 0 0 1 -1.3-1.87 1.861 1.861 0 0 1 .04-.34 1.092 1.092 0 0 0 .13.17 4 4 0 0 0 2.83 1.17h.19a10.943 10.943 0 0 0 3.03 5.78 10.717 10.717 0 0 0 2.14 1.65 1.956 1.956 0 0 1 -1.36.57zm0 6a3.014 3.014 0 0 1 2-2.83v4a3.026 3.026 0 0 0 -2 0zm-12 20v-4h4.29a9.2 9.2 0 0 0 1.23 2.77 2.655 2.655 0 0 1 .45 1.23zm30.03-3.24a.986.986 0 0 0 -.03.24v3h-22.03a4.756 4.756 0 0 0 -.8-2.36 6.794 6.794 0 0 1 -1.17-3.64 6.609 6.609 0 0 1 1.71-4.29l-1.42-1.42a8.723 8.723 0 0 0 -2.29 5.71h-4v-6.12a6.964 6.964 0 0 1 4.91-6.68l5.13-1.6c-.01.13-.04.26-.04.4v4a1 1 0 0 0 2 0 1 1 0 0 1 2 0 1 1 0 0 0 2 0v-3.59l2.29 2.3a1.014 1.014 0 0 0 1.42 0l2.29-2.3v3.59a1 1 0 0 0 2 0 1 1 0 0 1 2 0 1 1 0 0 0 2 0v-4c0-.14-.03-.27-.04-.4l5.13 1.61a6.886 6.886 0 0 1 3.74 2.79h-2.83a1 1 0 0 0 -.97.76zm25.97 3.24h-24v-2h24z"/><path d="m40 48h2v2h-2z"/><path d="m40 52h2v2h-2z"/><path d="m44 48h2v2h-2z"/><path d="m44 52h2v2h-2z"/><path d="m48 49v4a1 1 0 0 0 1 1h6a1 1 0 0 0 1-1v-4a1 1 0 0 0 -1-1h-6a1 1 0 0 0 -1 1zm2 1h4v2h-4z"/><path d="m14 50h6v2h-6z"/><circle cx="19" cy="21" r="2"/><circle cx="27" cy="21" r="2"/></g></svg>